<?xml version="1.0" encoding="UTF-8" standalone="no"?>
<!-- Created with Inkscape (http://www.inkscape.org/) -->

<svg
   width="256"
   height="240"
   viewBox="0 0 67.733332 63.5"
   version="1.1"
   id="svg5"
   inkscape:version="1.2.2 (732a01da63, 2022-12-09)"
   sodipodi:docname="logo.svg"
   inkscape:export-filename="logo.png"
   inkscape:export-xdpi="96"
   inkscape:export-ydpi="96"
   xmlns:inkscape="http://www.inkscape.org/namespaces/inkscape"
   xmlns:sodipodi="http://sodipodi.sourceforge.net/DTD/sodipodi-0.dtd"
   xmlns="http://www.w3.org/2000/svg"
   xmlns:svg="http://www.w3.org/2000/svg">
  <sodipodi:namedview
     id="namedview7"
     pagecolor="#ffffff"
     bordercolor="#000000"
     borderopacity="0.25"
     inkscape:showpageshadow="2"
     inkscape:pageopacity="0.0"
     inkscape:pagecheckerboard="0"
     inkscape:deskcolor="#d1d1d1"
     inkscape:document-units="mm"
     showgrid="false"
     inkscape:lockguides="false"
     inkscape:zoom="1.4142136"
     inkscape:cx="36.769552"
     inkscape:cy="190.21172"
     inkscape:window-width="2560"
     inkscape:window-height="1009"
     inkscape:window-x="-8"
     inkscape:window-y="-8"
     inkscape:window-maximized="1"
     inkscape:current-layer="layer1" />
  <defs
     id="defs2">
    <inkscape:path-effect
       effect="fillet_chamfer"
       id="path-effect2292"
       is_visible="true"
       lpeversion="1"
       nodesatellites_param="F,0,1,1,0,2.4488943,0,1 @ F,0,1,1,0,2.4488943,0,1 @ F,0,1,1,0,2.4488943,0,1 @ F,0,1,1,0,2.4488943,0,1 @ F,0,1,1,0,2.4488943,0,1 @ F,0,1,1,0,2.4488943,0,1 @ F,0,1,1,0,2.4488943,0,1 @ F,0,1,1,0,2.4488943,0,1 @ F,0,1,1,0,2.4488943,0,1 @ F,0,1,1,0,2.4488943,0,1 @ F,0,1,1,0,2.4488943,0,1 @ F,0,1,1,0,2.4488943,0,1 @ F,0,1,1,0,2.4488943,0,1 @ F,0,1,1,0,2.4488943,0,1 @ F,0,1,1,0,2.4488943,0,1 @ F,0,1,1,0,2.4488943,0,1 @ F,0,1,1,0,2.4488943,0,1 @ F,0,1,1,0,2.4488943,0,1 @ F,0,1,1,0,2.4488943,0,1 @ F,0,1,1,0,2.4488943,0,1"
       unit="px"
       method="auto"
       mode="F"
       radius="0"
       chamfer_steps="1"
       flexible="false"
       use_knot_distance="true"
       apply_no_radius="true"
       apply_with_radius="true"
       only_selected="false"
       hide_knots="false" />
    <inkscape:path-effect
       effect="fillet_chamfer"
       id="path-effect2086"
       is_visible="true"
       lpeversion="1"
       nodesatellites_param="F,0,1,1,0,1.1365514,0,1 @ F,0,1,1,0,1.1365514,0,1 @ F,0,1,1,0,1.1365514,0,1 @ F,0,1,1,0,1.1365514,0,1 @ F,0,1,1,0,1.1365514,0,1 @ F,0,1,1,0,1.1365514,0,1 @ F,0,1,1,0,1.1365514,0,1 @ F,0,1,1,0,1.1365514,0,1 @ F,0,1,1,0,1.1365514,0,1 @ F,0,1,1,0,1.1365514,0,1 @ F,0,1,1,0,1.1365514,0,1 @ F,0,1,1,0,1.1365514,0,1 @ F,0,1,1,0,1.1365514,0,1 @ F,0,1,1,0,1.1365514,0,1 @ F,0,1,1,0,1.1365514,0,1 @ F,0,1,1,0,1.1365514,0,1 @ F,0,1,1,0,1.1365514,0,1 @ F,0,1,1,0,1.1365514,0,1 @ F,0,1,1,0,1.1365514,0,1 @ F,0,1,1,0,1.1365514,0,1 @ F,0,0,1,0,1.1365514,0,1 @ F,0,1,1,0,1.1365514,0,1 @ F,0,1,1,0,1.1365514,0,1 @ F,0,1,1,0,1.1365514,0,1 @ F,0,1,1,0,1.1365514,0,1 @ F,0,1,1,0,1.1365514,0,1 @ F,0,1,1,0,1.1365514,0,1 @ F,0,1,1,0,1.1365514,0,1 @ F,0,1,1,0,1.1365514,0,1 @ F,0,1,1,0,1.1365514,0,1 @ F,0,1,1,0,1.1365514,0,1 @ F,0,1,1,0,1.1365514,0,1 @ F,0,1,1,0,1.1365514,0,1 @ F,0,1,1,0,1.1365514,0,1 @ F,0,1,1,0,1.1365514,0,1 @ F,0,1,1,0,1.1365514,0,1 @ F,0,1,1,0,1.1365514,0,1 @ F,0,1,1,0,1.1365514,0,1 @ F,0,1,1,0,1.1365514,0,1 @ F,0,1,1,0,1.1365514,0,1 @ F,0,1,1,0,1.1365514,0,1 @ F,0,1,1,0,1.1365514,0,1 @ F,0,1,1,0,1.1365514,0,1 @ F,0,1,1,0,1.1365514,0,1 @ F,0,1,1,0,1.1365514,0,1 @ F,0,1,1,0,1.1365514,0,1 @ F,0,1,1,0,1.1365514,0,1 @ F,0,1,1,0,1.1365514,0,1"
       unit="px"
       method="auto"
       mode="F"
       radius="0"
       chamfer_steps="1"
       flexible="false"
       use_knot_distance="true"
       apply_no_radius="true"
       apply_with_radius="true"
       only_selected="false"
       hide_knots="false" />
  </defs>
  <g
     inkscape:label="Layer 1"
     inkscape:groupmode="layer"
     id="layer1">
    <path
       id="rect404"
       style="fill:#005c94;fill-opacity:1;stroke-width:0.209182;stroke-linecap:square;stroke-miterlimit:2.2"
       d="m 18.672762,39.108208 -9.4919269,3.641638 c -0.1185228,0.04547 -0.1185237,0.118345 0,0.163814 l 24.3013579,9.322945 c 0.118524,0.04547 0.309358,0.04547 0.427881,0 L 58.211433,42.91366 c 0.118523,-0.04547 0.118524,-0.118346 10e-7,-0.163814 L 48.71899,39.108208 33.696135,44.871163 Z" />
    <path
       id="rect406"
       style="fill:#0081cf;fill-opacity:1;stroke:none;stroke-width:0.901422;stroke-linecap:square;stroke-miterlimit:2.2;stroke-dasharray:none;stroke-opacity:1"
       d="M 36.964048,24.217014 49.982375,29.211541 33.69603,35.459222 17.409169,29.211541 9.1807307,32.367938 c -0.1185228,0.04547 -0.1185237,0.118862 0,0.164331 L 33.48209,41.854697 c 0.118523,0.04547 0.309358,0.04547 0.427881,0 l 24.301358,-9.322428 c 0.118523,-0.04547 0.118524,-0.118862 0,-0.164331 z" />
    <g
       id="g4405">
      <rect
         style="fill:#22a6f2;fill-opacity:1;stroke:none;stroke-width:1.10223;stroke-linecap:square;stroke-miterlimit:2.2;stroke-dasharray:none;stroke-opacity:1"
         id="rect962"
         width="26.486473"
         height="26.486473"
         x="-26.004196"
         y="35.608131"
         ry="0.22914334"
         transform="matrix(0.93365415,-0.35817585,0.93365415,0.35817585,0,0)" />
      <path
         id="path2427"
         style="fill:#074a6f;fill-opacity:1;stroke:none;stroke-width:0.126471;stroke-linecap:square;stroke-miterlimit:2.2;stroke-dasharray:none;stroke-opacity:1"
         d="m 34.972892,16.896824 c -0.105525,-0.03988 -0.226024,-0.06703 -0.365014,-0.078 -0.593919,-0.04694 -1.194446,-0.04808 -1.788744,-0.0033 -0.741715,0.05592 -0.964905,0.572283 -1.141964,1.035948 -0.0049,0.0139 -0.01099,0.02775 -0.0171,0.04151 -0.203148,0.459052 -1.414827,0.917533 -2.123065,0.803308 -0.01857,-0.0029 -0.03713,-0.0061 -0.05557,-0.0095 -0.702253,-0.129213 -1.497793,-0.258795 -1.940668,0.135078 -0.275244,0.24479 -0.775241,0.804289 -1.027023,1.264877 -0.171087,0.312977 0.44213,0.585105 0.950298,0.927966 0.0012,0.0015 0.0049,0.0029 0.0061,0.0045 0.505285,0.344678 0.505249,1.261531 2.93e-4,1.606424 -0.499045,0.340834 -1.052953,0.745715 -0.749373,1.192692 0.228893,0.337013 0.513945,0.656453 0.849902,0.952445 0.445562,0.392572 1.283031,0.277893 1.996899,0.17993 0.682553,-0.09365 1.85929,0.353134 2.062254,0.8122 0.192888,0.436328 0.480822,0.941339 1.222818,0.995623 0.549487,0.04021 1.104188,0.04128 1.654017,0.0032 0.742448,-0.05159 1.01647,-0.581961 1.249236,-1.034915 0.220344,-0.428777 1.391963,-0.87027 2.100164,-0.75599 0.683518,0.110301 1.50114,0.212405 1.950891,-0.178116 0.306193,-0.26587 0.825207,-0.845434 1.078747,-1.305611 0.145048,-0.263289 -0.473775,-0.498817 -0.974285,-0.846473 -0.495124,-0.34393 -0.494513,-1.254492 0.01099,-1.599286 0.0061,-0.004 0.01221,-0.0082 0.01795,-0.01221 0.512785,-0.339918 1.089813,-0.73591 0.799888,-1.186765 -0.228551,-0.355615 -0.519343,-0.692657 -0.866048,-1.004482 -0.439663,-0.395421 -1.233921,-0.267956 -1.936491,-0.139566 -0.01734,0.0032 -0.03469,0.0061 -0.05215,0.009 -0.708238,0.114294 -1.920052,-0.344098 -2.123346,-0.803115 -0.0061,-0.01494 -0.01258,-0.03008 -0.01832,-0.04517 -0.14219,-0.37701 -0.314572,-0.789378 -0.771724,-0.962202 z m 0.373037,3.019189 a 3.2904099,2.1561796 0 0 1 1.204327,2.945302 3.2904099,2.1561796 0 0 1 -4.494772,0.789352 3.2904099,2.1561796 0 0 1 -1.204193,-2.945461 3.2904099,2.1561796 0 0 1 4.494638,-0.789193 z" />
    </g>
  </g>
</svg>
